<?xml version="1.0" encoding="UTF-8" standalone="no"?>
<svg xmlns:svg="http://www.w3.org/2000/svg" xmlns="http://www.w3.org/2000/svg" height = "60" width = "60" version="1">
<path d="M 17.3 48 C 12.2 46.4 8.4 42.3 7 36.7 C 6.3 34.1 6.1 29.9 6.7 29.9 C 6.8 29.9 7.3 31.1 7.8 32.5 C 8.7 35.6 10.2 38.5 11.7 39.9 C 14.3 42.3 20.4 43.2 24 41.7 C 26.8 40.6 27.9 37.9 26.7 35.3 C 25.8 33.3 23.6 32.5 19.7 33 C 19.7 33 17.3 30.7 16.5 26.5 L 19 26.7 C 22 27 24.2 26.4 25.4 25 C 26.5 23.8 26.5 23.3 25.2 22 C 23.5 20.2 20.3 20.6 13.9 23.7 L 10.7 18.8 L 12 17.9 C 15.4 15.6 21.3 14.4 24.7 15.4 C 27.7 16.3 30 19.9 29.4 23 C 29 25 27.1 27.9 25.7 28.7 L 24.5 29.4 L 26.2 30.1 C 29.1 31.2 30.8 30.3 32.9 26.6 C 35.8 21.6 37.7 20.2 42 20.2 C 44.1 20.2 44.8 20.4 46.3 21.4 C 50 23.7 52 28.5 51.6 34 C 51 40.9 47.4 45.1 41.9 45.1 C 38.9 45.1 37 44.2 35.4 42 C 34.1 40 33.5 36.2 34.2 34.5 C 34.6 33.6 34.7 33.6 34.7 34.3 C 34.7 35.5 36.3 37.4 37.6 38 C 41.1 39.7 46 37.7 47.9 33.9 C 49.4 31 48.6 25.5 46.6 24.6 C 46.1 24.3 45.1 24.2 44.3 24.2 C 42.4 24.2 41 25.4 39 28.5 C 38.3 29.6 37.2 31 36.5 31.6 C 35.3 32.6 34.8 32.7 32.4 32.7 L 29.8 32.7 L 30.6 34.5 C 31.9 36.9 31.8 40.9 30.5 43.3 C 29.4 45.5 26.7 47.6 24.6 48.2 C 22.5 48.7 19.2 48.6 17.3 48 z M 27.3 14.9 C 26.1 13 25.4 9.7 26.2 9.7 C 27.1 11.5 29 13.1 31 14.2 C 34.7 15.8 38.4 15.2 42.4 12.3 C 43.3 11.6 44.1 11.2 44.2 11.2 C 45.2 12.7 46.9 13.8 47.5 15.4 C 47.5 16 44.2 18 41.7 18.8 C 35.3 20.5 31 19.8 27.3 14.9 z M 30.5 10.7 L 34.6 6.6 L 39.2 10.4 C 37.6 11.6 36.5 13.4 34.7 14.3 C 33.3 13.3 31.2 12.2 30.5 10.7 z" style="fill: #000000"/></svg>
