<?xml version="1.0" encoding="UTF-8" standalone="no"?>
<!DOCTYPE svg PUBLIC "-//W3C//DTD SVG 1.1//EN"
 "http://www.w3.org/Graphics/SVG/1.1/DTD/svg11.dtd">
<!-- Generated by graphviz version 2.40.1 (20161225.0304)
 -->
<!-- Title: G Pages: 1 -->
<svg width="247pt" height="334pt"
 viewBox="0.00 0.00 247.00 333.60" xmlns="http://www.w3.org/2000/svg" xmlns:xlink="http://www.w3.org/1999/xlink">
<g id="graph0" class="graph" transform="scale(1 1) rotate(0) translate(4 329.6)">
<title>G</title>
<g id="clust3" class="cluster">
<title>cluster_0</title>
<polygon fill="#6388cc" stroke="#6388cc" points="8,-8 8,-317.6 134,-317.6 134,-8 8,-8"/>
<text text-anchor="middle" x="71" y="-301" font-family="Times,serif" font-size="14.00" fill="#000000">Buddha&#39;s </text>
<text text-anchor="middle" x="71" y="-284.2" font-family="Times,serif" font-size="14.00" fill="#000000"> Eightfold Path</text>
</g>
<g id="clust4" class="cluster">
<title>cluster_1</title>
<polygon fill="#4362a9" stroke="#4362a9" points="142,-8 142,-317.6 231,-317.6 231,-8 142,-8"/>
<text text-anchor="middle" x="186.5" y="-301" font-family="Times,serif" font-size="14.00" fill="#000000">Eight Limbs </text>
<text text-anchor="middle" x="186.5" y="-284.2" font-family="Times,serif" font-size="14.00" fill="#000000"> of Yoga</text>
</g>
<!-- a0 -->
<g id="node1" class="node">
<title>a0</title>
<g id="a_node1"><a xlink:href="two-paths/b1" xlink:title="Sunflowers">
<ellipse fill="none" stroke="#000000" cx="71" cy="-250" rx="55.0343" ry="18"/>
<text text-anchor="middle" x="71" y="-245.8" font-family="Times,serif" font-size="14.00" fill="#000000">Sunflowers</text>
</a>
</g>
</g>
<!-- b1 -->
<g id="node2" class="node">
<title>b1</title>
<ellipse fill="none" stroke="#000000" cx="177" cy="-178" rx="27" ry="18"/>
<text text-anchor="middle" x="177" y="-173.8" font-family="Times,serif" font-size="14.00" fill="#000000">b1</text>
</g>
<!-- a0&#45;&#45;b1 -->
<g id="edge1" class="edge">
<title>a0&#45;&#45;b1</title>
<path fill="none" stroke="#000000" d="M95.053,-233.6621C114.1109,-220.7171 140.372,-202.8794 157.9805,-190.9189"/>
</g>
<!-- a1 -->
<g id="node4" class="node">
<title>a1</title>
<ellipse fill="#ffffff" stroke="#ffffff" cx="71" cy="-178" rx="27" ry="18"/>
<text text-anchor="middle" x="71" y="-173.8" font-family="Times,serif" font-size="14.00" fill="#000000">a1</text>
</g>
<!-- a0&#45;&#45;a1 -->
<g id="edge2" class="edge">
<title>a0&#45;&#45;a1</title>
<path fill="none" stroke="#000000" d="M71,-231.8314C71,-221 71,-207.2876 71,-196.4133"/>
</g>
<!-- b2 -->
<g id="node7" class="node">
<title>b2</title>
<ellipse fill="#ffffff" stroke="#ffffff" cx="177" cy="-106" rx="27" ry="18"/>
<text text-anchor="middle" x="177" y="-101.8" font-family="Times,serif" font-size="14.00" fill="#000000">b2</text>
</g>
<!-- b1&#45;&#45;b2 -->
<g id="edge6" class="edge">
<title>b1&#45;&#45;b2</title>
<path fill="none" stroke="#000000" d="M177,-159.8314C177,-149 177,-135.2876 177,-124.4133"/>
</g>
<!-- b0 -->
<g id="node3" class="node">
<title>b0</title>
<ellipse fill="none" stroke="#000000" cx="177" cy="-250" rx="27" ry="18"/>
<text text-anchor="middle" x="177" y="-245.8" font-family="Times,serif" font-size="14.00" fill="#000000">b0</text>
</g>
<!-- b0&#45;&#45;b1 -->
<g id="edge5" class="edge">
<title>b0&#45;&#45;b1</title>
<path fill="none" stroke="#000000" d="M177,-231.8314C177,-221 177,-207.2876 177,-196.4133"/>
</g>
<!-- a2 -->
<g id="node5" class="node">
<title>a2</title>
<ellipse fill="#ffffff" stroke="#ffffff" cx="71" cy="-106" rx="27" ry="18"/>
<text text-anchor="middle" x="71" y="-101.8" font-family="Times,serif" font-size="14.00" fill="#000000">a2</text>
</g>
<!-- a1&#45;&#45;a2 -->
<g id="edge3" class="edge">
<title>a1&#45;&#45;a2</title>
<path fill="none" stroke="#000000" d="M71,-159.8314C71,-149 71,-135.2876 71,-124.4133"/>
</g>
<!-- a3 -->
<g id="node6" class="node">
<title>a3</title>
<ellipse fill="#ffffff" stroke="#ffffff" cx="71" cy="-34" rx="27" ry="18"/>
<text text-anchor="middle" x="71" y="-29.8" font-family="Times,serif" font-size="14.00" fill="#000000">a3</text>
</g>
<!-- a2&#45;&#45;a3 -->
<g id="edge4" class="edge">
<title>a2&#45;&#45;a3</title>
<path fill="none" stroke="#000000" d="M71,-87.8314C71,-77 71,-63.2876 71,-52.4133"/>
</g>
<!-- b3 -->
<g id="node8" class="node">
<title>b3</title>
<ellipse fill="#ffffff" stroke="#ffffff" cx="177" cy="-34" rx="27" ry="18"/>
<text text-anchor="middle" x="177" y="-29.8" font-family="Times,serif" font-size="14.00" fill="#000000">b3</text>
</g>
<!-- b2&#45;&#45;b3 -->
<g id="edge7" class="edge">
<title>b2&#45;&#45;b3</title>
<path fill="none" stroke="#000000" d="M177,-87.8314C177,-77 177,-63.2876 177,-52.4133"/>
</g>
</g>
</svg>
