<?xml version="1.0" standalone="no"?>
<svg xmlns="http://www.w3.org/2000/svg" xmlns:xlink="http://www.w3.org/1999/xlink" width="559pt" height="699pt" viewBox="0.00 0.00 559 698.89">
<g id="graph0" class="graph" transform="translate(4,694.8900146484375) scale(1)" data-name="G">

<g id="clust10" class="cluster" data-name="cluster_0">

<path fill="none" stroke="#81819c" d="M20,-8C20,-8 246,-8 246,-8 252,-8 258,-14 258,-20 258,-20 258,-670.89 258,-670.89 258,-676.89 252,-682.89 246,-682.89 246,-682.89 20,-682.89 20,-682.89 14,-682.89 8,-676.89 8,-670.89 8,-670.89 8,-20 8,-20 8,-14 14,-8 20,-8"/>
</g>
<g id="clust11" class="cluster" data-name="cluster_1">

<path fill="none" stroke="#858597" d="M345,-8C345,-8 531,-8 531,-8 537,-8 543,-14 543,-20 543,-20 543,-670.89 543,-670.89 543,-676.89 537,-682.89 531,-682.89 531,-682.89 345,-682.89 345,-682.89 339,-682.89 333,-676.89 333,-670.89 333,-670.89 333,-20 333,-20 333,-14 339,-8 345,-8"/>
</g>
<!-- alabel -->
<g id="node1" class="node" pointer-events="visible" data-name="alabel">

<path fill="#4a4a4a" stroke="#4a4a4a" d="M236.36,-674.89C236.36,-674.89 31.64,-674.89 31.64,-674.89 25.64,-674.89 19.64,-668.89 19.64,-662.89 19.64,-662.89 19.64,-650.89 19.64,-650.89 19.64,-644.89 25.64,-638.89 31.64,-638.89 31.64,-638.89 236.36,-638.89 236.36,-638.89 242.36,-638.89 248.36,-644.89 248.36,-650.89 248.36,-650.89 248.36,-662.89 248.36,-662.89 248.36,-668.89 242.36,-674.89 236.36,-674.89"/>
<text text-anchor="middle" x="134" y="-650.89" font-family="Arial" font-size="20.00" fill="white">Buddha's Eightfold Path</text>
</g>
<!-- a0 -->
<g id="node3" class="node" pointer-events="visible" data-name="a0">

<ellipse fill="#bdbdbd" stroke="#bdbdbd" cx="134" cy="-581.96" rx="94.13" ry="20.86"/>
<text text-anchor="middle" x="134" y="-576.56" font-family="Arial" font-size="18.00">Samyak Drusti</text>
</g>
<!-- alabel&#45;&#45;a0 -->
<!-- blabel -->
<g id="node2" class="node" pointer-events="visible" data-name="blabel">

<path fill="#4a4a4a" stroke="#4a4a4a" d="M523.49,-674.89C523.49,-674.89 352.51,-674.89 352.51,-674.89 346.51,-674.89 340.51,-668.89 340.51,-662.89 340.51,-662.89 340.51,-650.89 340.51,-650.89 340.51,-644.89 346.51,-638.89 352.51,-638.89 352.51,-638.89 523.49,-638.89 523.49,-638.89 529.49,-638.89 535.49,-644.89 535.49,-650.89 535.49,-650.89 535.49,-662.89 535.49,-662.89 535.49,-668.89 529.49,-674.89 523.49,-674.89"/>
<text text-anchor="middle" x="438" y="-650.89" font-family="Arial" font-size="20.00" fill="white">Eight Limbs of Yoga</text>
</g>
<!-- b0 -->
<g id="node4" class="node" pointer-events="visible" data-name="b0">

<ellipse fill="#bdbdbd" stroke="#bdbdbd" cx="392" cy="-581.96" rx="50.85" ry="20.86"/>
<text text-anchor="middle" x="392" y="-576.56" font-family="Arial" font-size="18.00">Yamas</text>
</g>
<!-- blabel&#45;&#45;b0 -->
<!-- a1 -->
<g id="node5" class="node" pointer-events="visible" data-name="a1">

<ellipse fill="#bdbdbd" stroke="#bdbdbd" cx="133" cy="-504.09" rx="117.35" ry="20.86"/>
<text text-anchor="middle" x="133" y="-498.69" font-family="Arial" font-size="18.00">Samyak Samkalpa</text>
</g>
<!-- a0&#45;&#45;a1 -->
<!-- b1 -->
<g id="node6" class="node" pointer-events="visible" data-name="b1">

<ellipse fill="#bdbdbd" stroke="#bdbdbd" cx="443" cy="-504.09" rx="60.64" ry="20.86"/>
<text text-anchor="middle" x="443" y="-498.69" font-family="Arial" font-size="18.00">Niyamas</text>
</g>
<!-- a0&#45;&#45;b1 -->
<g id="edge1" class="edge" data-name="a0--b1">

<path fill="none" stroke="#5d5fb8" stroke-dasharray="5,2" d="M195.79,-565.79C254.26,-551.43 340.85,-530.17 394.5,-517"/>
</g>
<!-- b0&#45;&#45;b1 -->
<!-- a1&#45;&#45;b1 -->
<g id="edge2" class="edge" data-name="a1--b1">

<path fill="none" stroke="#5d5fb8" stroke-dasharray="5,2" d="M250.76,-504.09C294.57,-504.09 338.37,-504.09 382.18,-504.09"/>
</g>
<!-- a2 -->
<g id="node7" class="node" pointer-events="visible" data-name="a2">

<ellipse fill="#bdbdbd" stroke="#bdbdbd" cx="133" cy="-426.23" rx="82.52" ry="20.86"/>
<text text-anchor="middle" x="133" y="-420.83" font-family="Arial" font-size="18.00">Samyak Vac</text>
</g>
<!-- a1&#45;&#45;a2 -->
<!-- b2 -->
<g id="node8" class="node" pointer-events="visible" data-name="b2">

<ellipse fill="#bdbdbd" stroke="#bdbdbd" cx="443" cy="-426.23" rx="47.31" ry="20.86"/>
<text text-anchor="middle" x="443" y="-420.83" font-family="Arial" font-size="18.00">Asana</text>
</g>
<!-- b1&#45;&#45;b2 -->
<!-- a2&#45;&#45;b0 -->
<g id="edge3" class="edge" data-name="a2--b0">

<path fill="none" stroke="#5d5fb8" stroke-dasharray="5,2" d="M165.34,-445.68C216.17,-476.24 313.98,-535.04 362.79,-564.39"/>
</g>
<!-- a3 -->
<g id="node9" class="node" pointer-events="visible" data-name="a3">

<ellipse fill="#bdbdbd" stroke="#bdbdbd" cx="133" cy="-348.37" rx="116.02" ry="20.86"/>
<text text-anchor="middle" x="133" y="-342.97" font-family="Arial" font-size="18.00">Samyak Karmanta</text>
</g>
<!-- a2&#45;&#45;a3 -->
<!-- b3 -->
<g id="node10" class="node" pointer-events="visible" data-name="b3">

<ellipse fill="#bdbdbd" stroke="#bdbdbd" cx="457" cy="-348.37" rx="76.3" ry="20.86"/>
<text text-anchor="middle" x="457" y="-342.97" font-family="Arial" font-size="18.00">Pranayama</text>
</g>
<!-- b2&#45;&#45;b3 -->
<!-- a3&#45;&#45;b0 -->
<g id="edge4" class="edge" data-name="a3--b0">

<path fill="none" stroke="#5d5fb8" stroke-dasharray="5,2" d="M155.97,-369.09C205.7,-413.93 322.72,-519.48 370.8,-562.84"/>
</g>
<!-- a4 -->
<g id="node11" class="node" pointer-events="visible" data-name="a4">

<ellipse fill="#bdbdbd" stroke="#bdbdbd" cx="136" cy="-270.51" rx="88.33" ry="20.86"/>
<text text-anchor="middle" x="136" y="-265.11" font-family="Arial" font-size="18.00">Samyak Ajiva</text>
</g>
<!-- a3&#45;&#45;a4 -->
<!-- b4 -->
<g id="node12" class="node" pointer-events="visible" data-name="b4">

<ellipse fill="#bdbdbd" stroke="#bdbdbd" cx="457" cy="-270.51" rx="73.65" ry="20.86"/>
<text text-anchor="middle" x="457" y="-265.11" font-family="Arial" font-size="18.00">Pratyahara</text>
</g>
<!-- b3&#45;&#45;b4 -->
<!-- a4&#45;&#45;b0 -->
<g id="edge5" class="edge" data-name="a4--b0">

<path fill="none" stroke="#5d5fb8" stroke-dasharray="5,2" d="M152.93,-291.11C199.59,-347.87 329.58,-506.02 375.6,-562"/>
</g>
<!-- a5 -->
<g id="node13" class="node" pointer-events="visible" data-name="a5">

<ellipse fill="#bdbdbd" stroke="#bdbdbd" cx="136" cy="-192.65" rx="113.77" ry="20.86"/>
<text text-anchor="middle" x="136" y="-187.25" font-family="Arial" font-size="18.00">Samyak Vyayama</text>
</g>
<!-- a4&#45;&#45;a5 -->
<!-- b5 -->
<g id="node14" class="node" pointer-events="visible" data-name="b5">

<ellipse fill="#bdbdbd" stroke="#bdbdbd" cx="475" cy="-192.65" rx="60.27" ry="20.86"/>
<text text-anchor="middle" x="475" y="-187.25" font-family="Arial" font-size="18.00">Dharana</text>
</g>
<!-- b4&#45;&#45;b5 -->
<!-- a5&#45;&#45;b1 -->
<g id="edge7" class="edge" data-name="a5--b1">

<path fill="none" stroke="#5d5fb8" stroke-dasharray="5,2" d="M156.31,-213.25C212.25,-270.01 368.14,-428.15 423.33,-484.14"/>
</g>
<!-- a6 -->
<g id="node15" class="node" pointer-events="visible" data-name="a6">

<ellipse fill="#bdbdbd" stroke="#bdbdbd" cx="148" cy="-114.79" rx="93.2" ry="20.86"/>
<text text-anchor="middle" x="148" y="-109.39" font-family="Arial" font-size="18.00">Samyak Smriti</text>
</g>
<!-- a5&#45;&#45;a6 -->
<!-- b6 -->
<g id="node16" class="node" pointer-events="visible" data-name="b6">

<ellipse fill="#bdbdbd" stroke="#bdbdbd" cx="477" cy="-114.79" rx="55.37" ry="20.86"/>
<text text-anchor="middle" x="477" y="-109.39" font-family="Arial" font-size="18.00">Dhyana</text>
</g>
<!-- b5&#45;&#45;b6 -->
<!-- a6&#45;&#45;b2 -->
<g id="edge8" class="edge" data-name="a6--b2">

<path fill="none" stroke="#5d5fb8" stroke-dasharray="5,2" d="M167.6,-135.48C221.58,-192.48 371.95,-351.22 424.55,-406.75"/>
</g>
<!-- a6&#45;&#45;b3 -->
<g id="edge9" class="edge" data-name="a6--b3">

<path fill="none" stroke="#5d5fb8" stroke-dasharray="5,2" d="M174.72,-134.99C233.29,-179.27 372.42,-284.44 430.65,-328.46"/>
</g>
<!-- a7 -->
<g id="node17" class="node" pointer-events="visible" data-name="a7">

<ellipse fill="#bdbdbd" stroke="#bdbdbd" cx="139" cy="-36.93" rx="111.12" ry="20.86"/>
<text text-anchor="middle" x="139" y="-31.53" font-family="Arial" font-size="18.00">Samyak Samadhi</text>
</g>
<!-- a6&#45;&#45;a7 -->
<!-- b7 -->
<g id="node18" class="node" pointer-events="visible" data-name="b7">

<ellipse fill="#bdbdbd" stroke="#bdbdbd" cx="438" cy="-36.93" rx="61.6" ry="20.86"/>
<text text-anchor="middle" x="438" y="-31.53" font-family="Arial" font-size="18.00">Samadhi</text>
</g>
<!-- b6&#45;&#45;b7 -->
<!-- a7&#45;&#45;b4 -->
<g id="edge11" class="edge" data-name="a7--b4">

<path fill="none" stroke="#5d5fb8" stroke-dasharray="5,2" d="M167.01,-57.51C227.68,-102.07 370.57,-207.02 430.16,-250.8"/>
</g>
<!-- a7&#45;&#45;b5 -->
<g id="edge12" class="edge" data-name="a7--b5">

<path fill="none" stroke="#5d5fb8" stroke-dasharray="5,2" d="M181.33,-56.55C247.83,-87.37 375.64,-146.6 438.4,-175.69"/>
</g>
<!-- a7&#45;&#45;b6 -->
<g id="edge10" class="edge" data-name="a7--b6">

<path fill="none" stroke="#5d5fb8" stroke-dasharray="5,2" d="M208.77,-53.59C274.96,-68.45 372.59,-90.36 430,-103.24"/>
</g>
<!-- a7&#45;&#45;b7 -->
<g id="edge6" class="edge" data-name="a7--b7">

<path fill="none" stroke="#5d5fb8" stroke-dasharray="5,2" d="M250.54,-36.93C292.4,-36.93 334.26,-36.93 376.12,-36.93"/>
</g>
</g>
</svg>